<?xml version="1.0" encoding="utf-8"?>
<!-- Generator: Adobe Illustrator 18.1.0, SVG Export Plug-In . SVG Version: 6.00 Build 0)  -->
<svg version="1.1" id="Layer_1" xmlns="http://www.w3.org/2000/svg" xmlns:xlink="http://www.w3.org/1999/xlink" x="0px" y="0px"
	 viewBox="0 0 2000 2000" enable-background="new 0 0 2000 2000" xml:space="preserve">
<g>
	<path fill="#231F20" d="M563.6,1905.9c-42,0.3-84-2.7-126-2.7c-10.5,0.4-21,0.5-31.5,0.6c-8,1-37.6,3.8-24.7-11.1
		c4.4-19.1,10.5-32.1-5.6-48.5c-21-17.3-57.1-21.1-64.9-51.3c-6.5-41.3,46.3-62.3,45.2-102.1c-1.2-16.5-6.7-33.2-20.2-43.7
		c0.2,0.2,0.4,0.4,0.6,0.6c-10.9-10.7-24.3-18.1-38.2-24.1c0.1,0.1,0.3,0.1,0.4,0.2c-21.9-10.5-47.7-17.4-63.5-37
		c-17.1-22.3-10.9-56.8,11.1-73.5c36.4-29.9,83.8-41.1,128.1-54.2c69.8-19.4,141.3-33.8,213.6-38.3c0,0-0.1,0-0.1,0
		c1.8-0.1,3.7-0.3,5.5-0.3c0,0,0,0,0,0c37-2.3,73.8,1.2,109.4,11.7c-0.2-0.1-0.4-0.1-0.6-0.2c20.2,6,41,11.6,60.1,20.6
		c33.3,19.1,60.8,52.9,61.1,92.7c-0.2,29.4-19,53.7-25.2,81.7c-13.3,63.1,88.1,54.6,100.1,106.9c6.4,31.3-10.6,61.5-20.7,90.3
		c-6.6,15.6-13.4,31.2-17.3,47.8c-0.9,5-1.6,11.6-7.5,13c-81.9,12.4-164.9,15.8-247.5,19.8c0.1,0,0.1,0,0.2,0
		C591.4,1905.4,577.5,1906,563.6,1905.9z M456.3,1891c47.2,1.9,94.4,4.3,141.6,2.4c0,0-0.1,0-0.1,0c0.2,0,0.4,0,0.6,0
		c-0.2,0-0.4,0-0.5,0c1.3-0.1,2.6-0.1,3.9-0.2c-0.3,0-0.5,0-0.8,0c22.6-1,45.3-1.8,67.9-3.4c0,0,0,0,0,0
		c59.5-3.8,119.5-6.1,178.2-16.9c4.4-25.2,17-47.8,25.6-71.6c-0.1,0.3-0.2,0.6-0.4,1c37.3-90.8-6.5-79.1-67.5-122
		c-23.5-15.2-25.2-45.3-15.1-69.1c6.1-19.3,18-36.4,21-56.7c5.1-37.3-20.7-70.8-50.6-90.1c-20.1-11.6-43.4-16.9-65.5-23.8
		c-33.4-9.7-67.9-12.1-102.5-10.2c0.2,0,0.4,0,0.7,0c-81.3,4.4-161.5,21.4-239.5,44.3c-43.1,14.7-147.4,40.9-108.6,104.4
		c-0.1-0.1-0.1-0.1-0.2-0.2c18.3,20.2,47.1,25.4,70.4,37.8c21.4,11,43.9,27.5,49.6,52.1c16.5,52.5-28.5,67.8-41.8,109
		c-6.1,31,35.2,37.8,54.5,51.2c22.1,13.6,24.6,41.3,13.9,63.2C412.8,1892,434.6,1890.5,456.3,1891z"/>
	<path fill="#231F20" d="M384.7,1904.1c-44.8,0.4-87.7-14.9-132.5-14.8c-30-1-63.7,6.8-90.9-8.9c-9.9-6.6,0.8-18.1,2.1-26.8
		c21.3-55.4,34.4-113.4,47.8-171.1c5.6-25.7,10.7-51.6,13.7-77.8c1.8-18,0.5-37.4,3.5-54.7c7.9-3.5,4.4,22.1,5.2,26.4
		c2,44.7-8.1,88.8-17.7,132.2c-11.1,48.9-23.6,97.6-41.8,144.3c0-0.1,0-0.1,0.1-0.2c-0.1,0.2-0.2,0.5-0.3,0.7c0,0,0-0.1,0.1-0.1
		c-1.7,4.6-3.4,9.2-5,13.8c0.1-0.2,0.2-0.5,0.3-0.7c-0.5,1.3-1,2.6-1.4,3.9c27.8,17.6,80.6,2.9,114.2,8.7c0,0,0,0,0,0
		c0.3,0,0.5,0.1,0.8,0.1c-0.1,0-0.2,0-0.3,0c0.2,0,0.3,0,0.5,0c-0.1,0-0.2,0-0.2,0c0.3,0,0.5,0.1,0.8,0.1c0,0-0.1,0-0.1,0
		c23.4,2.5,46.4,7.4,69.6,10.7c9.4,2.3,32.9-2.6,38.3,3.3C394.2,1897.8,389.9,1904.3,384.7,1904.1z"/>
	<path fill="#231F20" d="M839.6,1881.5c0.5-13,26.1-8.3,35.1-8.8c12,0.8,24-0.9,36-1.4c-11.1-38.4-17.4-77.7-20.9-117.5
		c-0.9-5.9-1.3-11.9-2.9-17.7c-1.2-3.4-2.7-7.9,1.3-10.1c2.9-1.8,7.1,0.9,5.5,4.3c8.1,22.7,8.3,47.4,12.3,71
		c2.3,10.1,5.5,20.1,7.2,30.3c2.4,12.4,5.9,24.5,8.9,36.7c5.6,13.2-10.7,14.8-19.9,14.5c0,0,0.1,0,0.1,0c-14.6,1.5-29.1,1-43.7,1.1
		C852.7,1882.4,841.8,1890.1,839.6,1881.5z"/>
	<path fill="#231F20" d="M835.1,1690c-7.4-5.6-5.9-31.6-7.8-41.3c-3.7-26.5-6-53.1-8.3-79.8c-2-15.7-6.7-30.8-9.1-46.5
		c0,0.2,0.1,0.3,0.1,0.5c-0.4-5.8-7.4-22.6,0.6-24.5c1.1,0.2,1.7,1.2,1.7,2.3c0,0,0,0,0-0.1c2.2,19.9,10.1,39,14,58.6
		c4.7,26.7,5.5,53.9,10.6,80.6c1.6,12,2.2,24.1,4.3,36C843.2,1681.7,844.3,1691.5,835.1,1690z"/>
	<path fill="#231F20" d="M807.3,1645.1c0.3-6.3-3.9-19.5-0.7-24c3.4-1.3,1.7,3.7,2.6,5.6c0-0.1,0-0.2,0-0.3
		c0.4,4.8,5.8,17.4,1.3,20.2C809.2,1647.1,807.6,1646.5,807.3,1645.1z"/>
	<path fill="#231F20" d="M815,1618.7c0-3-3.2-10.9,0.4-12c3,0.4,2.4,7.3,4,9.8C820.8,1619.3,816.1,1622,815,1618.7z"/>
	<path fill="#231F20" d="M819.9,1655.3c0.4-3.5-3.5-11.2,2.1-11.4c2.8,1.2,1.7,7,3,9.7C825.9,1656.8,820.7,1659.1,819.9,1655.3z"/>
	<path fill="#231F20" d="M888.9,1818.5c-1.5-4.7-2.3-9.7-1.9-14.6c0.4-1.6,2.7-2.5,3.7-0.9c0.6,2.7,0.5,5.7,1.6,8.4
		c0.6,2.6,3.2,6.2,0,8.1C891.2,1820.1,889.4,1819.9,888.9,1818.5z"/>
	<path fill="#231F20" d="M869.7,1843.4c-1-4.9-0.3-10-0.3-14.9c0.3-3.1,5.4-3.7,5.2,0c0-0.1,0-0.1,0-0.2c-1.1,5.1,4.3,13.9-0.9,17
		C872.1,1845.8,870.2,1845.1,869.7,1843.4z"/>
	<path fill="#231F20" d="M888.4,1852.1c-0.1-3.1-0.3-6.3,0.3-9.5c0.5-3.9,6.7-3.3,5.2,0.8c0,0,0,0,0,0c-0.9,3.5,2.5,9.3-2.2,10.9
		C890.2,1854.7,888.4,1853.8,888.4,1852.1z"/>
	<path fill="#231F20" d="M247.2,1644.5c-6.3-0.8-2.4-8.5-1.9-12.5c1.8-8.4,3.1-16.9,3.9-25.5c0,0.1,0,0.2,0,0.3c0-0.2,0-0.3,0-0.5
		c0,0.1,0,0.1,0,0.2c0.2-3.4,0.9-23.3,7.1-15.2c0,0,0,0,0,0C255.6,1599.9,257.3,1644.4,247.2,1644.5z"/>
	<path fill="#231F20" d="M236.5,1692.4c-5.5-0.8-2.3-7.6-1.4-10.9c2.6-6.8,3-15.1,7.5-20.9c1.6-1.5,4.4-0.4,4.2,1.8
		c-0.4,2-1.6,3.7-1.8,5.8C242.5,1674,243.5,1692,236.5,1692.4z"/>
	<path fill="#231F20" d="M278.8,1638.3c-5.5-0.8-1.8-7.3-1.1-10.6c1.7-5.4,2.6-11.2,5.1-16.3c1.5-3.2,6.4-1.3,3.9,1.8
		C284,1618.7,285.3,1638.8,278.8,1638.3z"/>
	<path fill="#231F20" d="M267.9,1664.3c-5.1-0.5-2.9-6.3-1.6-9.3c2-3.5,1.7-11.2,6.9-11.1c4.3,1.3,0.9,6.3,0.6,9.2
		C272.7,1657,273.5,1664,267.9,1664.3z"/>
	<path fill="#231F20" d="M250.9,1729.7c-5.8-1.9-0.6-9.1,0.2-12.9c3.1-9.4,6.2-18.8,9.7-28.1c1.1-7,10.5-4.9,5.2,0.9
		C263,1696.1,258.3,1732.3,250.9,1729.7z"/>
	<path fill="#231F20" d="M223.7,1776.6c-5.6-2-0.2-8.8,0.6-12.5c0,0,0,0,0,0c2.9-4.9,2.3-15.7,8.7-16.9c2.1,0.1,2.6,2.8,1.3,4.2
		C231.7,1757.4,231.5,1776.4,223.7,1776.6z"/>
	<path fill="#231F20" d="M233.7,1723.5c-1.6-0.3-2.5-2-2-3.5c1.9-3.1,1.7-9.9,6.3-10c1.7,0.3,2.3,2.3,1.6,3.7
		C238.1,1717,238.5,1723.8,233.7,1723.5z"/>
	<path fill="#231F20" d="M324.6,1665c-5.4-0.8-1.7-6.9-0.9-10.1c1.5-2.7,4.3-23.6,8.7-17.8c0,0,0,0,0,0c-1.3,8.1-2.9,16.2-3.8,24.3
		C328.5,1663.4,326.6,1665,324.6,1665z"/>
	<path fill="#231F20" d="M298.8,1722.7c-6.9-2.2,2.4-14.7,2.4-19.9c2.1-4.3,0.5-14.8,7.3-14.2c4.3,1.3-1.5,14-1.5,18
		C304.7,1711.6,306,1722.6,298.8,1722.7z"/>
	<path fill="#231F20" d="M292.4,1699.4c-6.2-2.1-0.5-9.8,0-14.1c1.8-6.3,3.1-12.8,4.6-19.2c2.6-11,5.4-21.9,7.7-33
		c0.8-2.4,0.6-8.2,4.3-7.3c0.6,0.4,0.8,1,0.7,1.7c0,0,0,0,0,0C308,1636.5,302.2,1703,292.4,1699.4z"/>
	<path fill="#231F20" d="M269.8,1775.1c-7.7-1.9,1.2-12.6,1.8-17.5c-0.1,0.2-0.1,0.3-0.2,0.5c3.1-4.6,6.2-29.3,12.3-26.6
		c3.2,0.2-4.4,19.2-4.7,22.8C276.2,1759.6,276.3,1774.5,269.8,1775.1z"/>
	<path fill="#231F20" d="M244.6,1841.9c-5.8-1.7-1-8.2,0.4-11.6c3.4-5.9,4.4-13.6,8.9-18.8c6.9-1.8,0.1,11-0.2,14.1
		C250.9,1830.6,252,1841.6,244.6,1841.9z"/>
	<path fill="#231F20" d="M211.8,1831.3c-5-3.3,2.2-10,2.7-14.5c2.1-3.6,2-12.7,7.2-12.6c3.3,2.1-1.9,10.1-2,13.7
		C217.8,1822.2,218.2,1832,211.8,1831.3z"/>
	<path fill="#231F20" d="M289.4,1830.2c-5.6-1.9,1.3-9.1,2.2-12.5c1.6-2.4,2.2-7.3,5.2-8.1c0.2,3.5-2.5,7.9-2.9,11.7
		c0,0,0-0.1,0-0.1c0,0.1,0,0.2-0.1,0.3c0,0,0-0.1,0-0.1C292.7,1824.3,293.4,1829.9,289.4,1830.2z"/>
	<path fill="#231F20" d="M341.8,1672c0.6-4.7,5.4-20.7,9.8-22.1c2.3-0.3,2.8,3,1,4c-1.9,5.8-4,11.7-4.7,17.8
		C347.7,1675.3,341.7,1676.1,341.8,1672z"/>
	<path fill="#231F20" d="M326,1724.5c-5.6-1.7,0.7-12.6,2-16.3c-1.9,0.6-0.1-1.9,0.3-2.6c0,0,0,0,0,0c6.5-12.7,3.1,6.8,1.8,10.5
		C329.1,1719,330.1,1724.2,326,1724.5z"/>
	<path fill="#231F20" d="M284.6,1883.9c-3.2-4.2,1-9.6,1.9-14c6.5-20.2,13.7-40.1,20.4-60.1c3.6-8.5,5.4-28,14-31.8
		c2.5,0.2,3.6,3.9,1.2,5.1c-6.6,27.3-13.1,54.6-22.6,81.1C296.2,1870.1,295,1890.4,284.6,1883.9z"/>
	<path fill="#231F20" d="M289.2,1878.2c-8.5-2.2,3.8-22.3,4.5-28.5c4.9-13.9,9.8-27.8,12.9-42.2c0,0.1,0,0.2-0.1,0.3
		c1-4.4,6.6-36.7,13.9-27.9c0,0,0,0,0,0c-6.4,26.3-9.3,52.9-19.8,78.4C297.3,1864.3,297.7,1877.9,289.2,1878.2z"/>
	<path fill="#231F20" d="M316.4,1848.7c-7.3-3.1,2.6-14.7,3.3-20.1c-0.1,0.1-0.1,0.3-0.2,0.4c0.9-2.2,1.2-4.8,2.9-6.5c0,0,0,0,0,0
		c7.5-3.6,2.6,8.8,1.9,12.2C322.5,1839.3,323.2,1848.8,316.4,1848.7z"/>
	<path fill="#231F20" d="M322.8,1878.5c-6.6-1.1,5.9-19.9,7.4-23.9c2-2.1,5.2,0.4,3.6,2.8c-1.3,1.9-1.7,4.3-2.6,6.4
		C328.5,1868,328.6,1878.4,322.8,1878.5z"/>
	<path fill="#231F20" d="M353.5,1855.5c-5.4-2.8,1.8-10.1,2.7-14.1c1-1.3,0.9-4.9,3.2-4.4C361.6,1838.4,357.8,1857.7,353.5,1855.5z"
		/>
	<path fill="#231F20" d="M370.8,1876.1c-4.8-1.8,3.5-11.1,3.8-14.8c0.1-0.7,0.9-1.5,1.7-1c1.2,2.6-1.4,6.3-1.5,9.2
		c0-0.1,0-0.2,0.1-0.3C374.1,1871.6,374.5,1876.4,370.8,1876.1z"/>
	<path fill="#231F20" d="M298.1,1540.5c-1.4-2.6-2.8-5.1-4.3-7.7c-1.3-1.7-1.3-4.8,1.4-4.8c3.1,1.9,5.5,5.7,7.9,8.7
		C305.1,1539.6,300.2,1543.6,298.1,1540.5z"/>
	<path fill="#231F20" d="M315.4,1534.4c-3.5-1.5-3.6-6.5-5.5-9.4c-1.2-0.3-1.5-1.8-1-2.8c0,0,0,0,0,0.1
		C312.8,1514.6,325.5,1535,315.4,1534.4z"/>
	<path fill="#231F20" d="M332.4,1526.3c-0.2-4.5,1.1-8.8,2.8-12.9c-0.1,0.1-0.1,0.2-0.2,0.3c0,0,0,0,0,0c0,0,0,0,0,0.1c0,0,0,0,0,0
		c0,0,0,0.1,0,0.1c2-4.1,6-1.3,4.6,2.6c0-0.1,0-0.3,0-0.4c-0.5,3.9,0.7,8.3-1.3,11.8C336.6,1530.4,332.3,1529.6,332.4,1526.3z"/>
	<path fill="#231F20" d="M361.2,1528.6c-4.5-2.4,0.5-8,1.9-11c1.2-2.5,4.5-6.5,7.1-3.1c-0.1-0.1-0.1-0.1-0.2-0.2
		c1.9,2.9-1.5,5.6-2.5,8.3C366.1,1525,364.9,1529.7,361.2,1528.6z"/>
	<path fill="#231F20" d="M559.2,1488.4c-1.3-2-3.6-4.5-2.3-6.9c1-2,4.4-2.1,4.7,0.4c0.7,1.3,2.5,2,2.7,3.6
		C564.7,1488.1,561.2,1490.5,559.2,1488.4z"/>
	<path fill="#231F20" d="M579.2,1486.2c-4.3-1.1-1.5-6-0.9-8.8c-0.5-2.2,1.5-4.7,3.8-4.6C587.8,1473.1,584.2,1487.4,579.2,1486.2z"
		/>
	<path fill="#231F20" d="M598.1,1486.3c-4.2-1,0.9-11.2,3.9-10.2C606.4,1477,602.1,1488.1,598.1,1486.3z"/>
	<path fill="#231F20" d="M557.8,1724.1c-3.6-1.9-8-3.9-10.1-7.5c-0.2-6.4,6.5-1.9,9.4-0.4c0,0-0.1,0-0.1-0.1
		c2.5,1.1,6.8,2.2,5.1,5.8C561.4,1723.6,559.5,1724.8,557.8,1724.1z"/>
	<path fill="#231F20" d="M569.4,1718.3c-2.1-1.5-1.4-4.7-2.1-6.9c-0.5-2.9-1.6-5.8-1.4-8.7c0.5-3.1,5-2.4,4.1,0.9c0-0.1,0-0.2,0-0.3
		C570.4,1707.6,578.6,1719.2,569.4,1718.3z"/>
	<path fill="#231F20" d="M584.5,1722.2c-7-1.4,4-17.9,7.1-19.7c3.2-0.9,4.5,3.5,2.1,5.2C590.6,1712.1,590.9,1721.8,584.5,1722.2z"/>
	<path fill="#231F20" d="M599,1726.1c-4.7-4.1,3.5-9.2,5.4-12.9c0.7-1.4,1.9-2.9,3.7-2.5c4.5,1.5,0.1,6.2-1.3,8.6
		C604.7,1721.8,603.3,1727.9,599,1726.1z"/>
	<path fill="#231F20" d="M420,1821.6c-2.6-3-12.5-9.4-5.4-12.5c0.8-0.1,1.8,0.3,2.1,1c2.5,2.5,5.7,4.2,8,6.9
		C427.1,1819.8,422.7,1824.3,420,1821.6z"/>
	<path fill="#231F20" d="M430.8,1814.1c-1.6-3.9-4.1-10.9-2.3-14.7c3.7,1.8,5.1,7.4,7.6,10.7
		C438.1,1813.2,433.1,1817.4,430.8,1814.1z"/>
	<path fill="#231F20" d="M446.2,1816c-6.7-1.3,1.3-16.2,6-15c3.8,1.4,0.3,5.4,0.1,8C451.6,1812,450.2,1816.6,446.2,1816z"/>
	<path fill="#231F20" d="M462.9,1818.6c-3.2-3,0.8-6.4,3.2-8.3c1.6-1.5,4.2-5.1,6.1-1.9C473.2,1811.8,466.8,1821.7,462.9,1818.6z"/>
	<path fill="#231F20" d="M748.3,1786.6c-3.4-2.4-6-5.7-8.5-8.9c0.1,0.1,0.1,0.2,0.2,0.2c-1.2-1.2-0.9-3.3,0.5-4.3
		c3.5-2.2,5.1,3.4,8.1,4.4c1.9,1.4,5.1,2.6,5.1,5.4C753.8,1786.1,750.6,1788.3,748.3,1786.6z"/>
	<path fill="#231F20" d="M757,1777.5c-2.8-1.6-6.1-14.9,0.3-12.9c1.8,2.3,2.1,5.7,3.8,8.4C762.2,1775.3,759.5,1778.4,757,1777.5z"/>
	<path fill="#231F20" d="M769.2,1781.1c-4.8-1.4-1.2-7.1-0.1-10c1.7-2.6,1.4-7.5,5.2-7.7c2.2,0,3.1,2.7,2,4.3
		C774.5,1772,775.5,1781.1,769.2,1781.1z"/>
	<path fill="#231F20" d="M783.5,1785.5c-3.4-3.2,1-6.6,3.1-8.9c2.3-2.1,4.2-6.8,7.9-6c2.6,0.9,2.1,4.7-0.1,5.8
		C791.1,1779.3,789.1,1788.5,783.5,1785.5z"/>
	<path fill="#231F20" d="M1021.9,1607.3c-45.7-5.1-60.6-45-38.9-83.3c17.8-29.2,57.1-32.9,87.2-23.1c31.1,9.2,36.6-3.9,59.7-20
		c21.7-13.9,51.9-22,74.8-6.5c15.2,9.4,34.7,16.6,51.4,6.6c23.7-12.7,58.9-34.3,82.7-11.5c0,0,0,0-0.1-0.1
		c11.1,10.4,28.6,14.5,42.9,9c13.6-3.8,28.5-1.1,41.2,4.5c39.3,18.6,45,69.5,3.2,89.2c-55.7,33-92.9-31.8-140.5,11.3
		c-17.4,13-42,19-62.1,8.7c-11.6-5.4-21.9-16.2-35.5-15.7c-13.1,1-23.9,9.5-35.6,14.7c-20.4,7.8-40.9-8.2-61.7-5.1
		c-6.4,1-11.4,6.4-17.6,7.3C1058.6,1604.6,1040.1,1610.3,1021.9,1607.3z M1041.1,1592.4c21.1,0.4,35.8-19.5,56.3-19.9
		c18.7-1.1,37.9,13.5,55.8,5c-0.3,0.1-0.5,0.3-0.8,0.4c0.6-0.3,1.2-0.6,1.8-0.9c-0.3,0.1-0.5,0.3-0.8,0.4
		c70.5-43.9,67.6,43,137.4-11.7c12.3-8.5,28.1-10.3,42.8-8.8c-0.1,0-0.2,0-0.3,0c0.3,0,0.5,0.1,0.8,0.1c0,0-0.1,0-0.1,0
		c0.1,0,0.2,0,0.2,0c-0.1,0-0.1,0-0.2,0c20.4,1.4,38.6,14.1,59.3,12.4c38.6-1.4,70.4-35.8,35.9-68.1c0.1,0.1,0.2,0.1,0.2,0.2
		c-30.9-25.2-46.1-4.5-75.3-11.5c-23.4-5.1-23.8-24.6-50.7-18.1c-28.6,4.3-52.1,33.5-82.6,21.9c-17.7-5.1-32.7-20.6-52.4-16.5
		c-37.3,5.2-49.9,35.6-76.8,38.2c-18.8,1.1-36.5-7.8-55.3-6.8c-28.2,0-48.1,20.8-47.7,48.9c1.4,22.9,24.1,33.5,44.5,34.9
		c-0.3,0-0.7-0.1-1-0.1C1035.1,1592.5,1038.1,1592.5,1041.1,1592.4z"/>
	<path fill="#231F20" d="M1130,1511.5C1130,1511.5,1130,1511.5,1130,1511.5c-0.2-0.3-0.3-0.6-0.3-0.9c0,0,0,0,0,0c0,0,0,0,0,0
		c0,0,0,0,0,0c4.3-11.3,28.7-20.2,40.3-20c3.4,0.5,8-0.2,10.5,2.5c1.9,3-0.9,7.1-4.3,7.1c-14.4-1.3-31,1.2-42.3,10.8
		C1133.1,1512.4,1130.9,1513,1130,1511.5z"/>
	<path fill="#231F20" d="M1210.7,1508.9c-3.2-1.3-11.1-4.2-6-8.1c3.6-0.8,12.7-0.7,11.3,5
		C1215.3,1507.9,1212.9,1509.8,1210.7,1508.9z"/>
	<path fill="#231F20" d="M1128,1562.7c-23.1-3.1-23.8-23.5-15.1-15.4c-0.1-0.1-0.1-0.1-0.2-0.2c13.5,11.7,32.9,7.1,48.4,2.6
		c3.3-0.7,8.1-5.3,10.5-1.1C1173.7,1559.5,1136,1564.1,1128,1562.7z"/>
	<path fill="#231F20" d="M1189.8,1546.9c-1.7-3,5.1-5.9,7.3-5.8c3.7,2.1-0.1,5.9-3.2,5.6c0.1,0,0.2,0,0.3-0.1
		C1192.7,1546.7,1191,1548.7,1189.8,1546.9z"/>
	<path fill="#231F20" d="M1334.3,1513.5c-21.5-7.1-39.4-19.5-62-6.6c0.1,0,0.2-0.1,0.3-0.1c-1.2,0.8-3.3,1.5-3.9-0.4
		c0.1-3.9,7-5.1,9.8-7.2c25.6-13,40.9,3.6,64.2,7.3c6.8,0.1,36.3-11.3,37-0.9c-0.3,2-2.2,3.8-4.2,3.7
		C1361.3,1506.6,1348.2,1516.2,1334.3,1513.5z"/>
	<path fill="#231F20" d="M1381.7,1556.7c-6-0.7-25.3-3-21.3-12.1c1.3-2.2,4.4-3.4,6.6-1.8c15.9,12.9,57.7-1.2,40.2-24.3
		c-2-2.9-10-5.2-8.7-8.7c0.6-1.3,2.2-2.2,3.5-1.5c17.5,3,23.8,22.6,12.4,35.8C1406.3,1553.1,1393.5,1557,1381.7,1556.7z"/>
	<path fill="#231F20" d="M1324.2,1542c0,0,0.1,0.1,0.1,0.1c-7.7-3.4-16.3,0.2-24.1-0.7c-9-12.1,19.1-7.3,24.3-5.3
		C1329.9,1537.1,1329.3,1543.5,1324.2,1542z"/>
	<path fill="#231F20" d="M1024.7,1573.1c-25.2-6.3-20.1-34.5,0.2-43.5c2.4-0.7,7.4-4.5,8.6-0.8c0.5,3.5-11.6,4.7-14.5,12.7
		c-6.5,10.3-0.7,18.6,10,21.9C1033.8,1566.2,1029.8,1574.2,1024.7,1573.1z"/>
	<path fill="#231F20" d="M1665.8,1680.8c-38.5-0.1-65.3-48.9-105.7-30.7c0.1,0,0.2-0.1,0.3-0.1c-0.3,0.1-0.5,0.2-0.8,0.3
		c0,0,0.1,0,0.1,0c0,0-0.1,0-0.1,0c0,0,0.1,0,0.1,0c-15.2,5.8-29.3,14.4-44.5,20.3c1.8,1.6-0.6,5-2.8,3.8c-21.3,5.7-46.3,4-65-8.4
		c-6.8-3.6-17.1-9.9-15-18.8c-14-28.7,14.2-55.7,42-57.7c21.8-3.9,43.3,5.7,65,2.6c34.6-4.1,31.3-35.6,59-50.8
		c-0.2,0.1-0.4,0.3-0.7,0.4c21.7-14.7,50.9-15.7,74.3-4.5c0,0,0,0-0.1,0c0.2,0.1,0.4,0.2,0.6,0.3c0,0,0,0,0,0
		c16,6.4,28.1,21.3,46.5,21.7c23.8,4,43.2-13.4,66-15.6c32.3-3.6,79.2,18.1,75.9,55.7c-5.5,32.6-41.6,47.2-71.6,43.1
		c-22.4-0.5-51.2-18.8-68,4c0,0,0.1-0.1,0.1-0.1c0,0,0,0-0.1,0.1c0.2-0.2,0.4-0.4,0.6-0.6c-0.3,0.4-0.7,0.8-1,1.1
		c0,0,0.1-0.1,0.1-0.1c-0.2,0.2-0.4,0.4-0.5,0.6c0,0,0,0,0.1-0.1C1707.5,1664.6,1689.4,1682.1,1665.8,1680.8z M1672.5,1668.8
		c18.2-1.6,30.8-15.5,41.7-28.8c23.4-31.5,62.4-5.9,93.7-9c19.8-0.5,41.4-13.5,43.9-34.4c-0.1-25.4-29.3-39.4-51.2-43.1
		c-25.1-4.4-45.5,14.6-69.7,16c-36.1,3.4-46.1-20.4-77-28c-22.4-5.5-47.5,1.8-63.1,18.9c-11,13.2-16.7,31.9-34.3,38.2
		c-24.4,11.9-50.6,0.8-76,1.9c-28.5,0.8-52.3,22.9-32.2,50.3c18.6,13.6,44,14.1,65.3,6.9c42.2-17.3,68.1-37.1,111.1-6.7
		C1639.2,1660.3,1654.6,1669.9,1672.5,1668.8z"/>
	<path fill="#231F20" d="M1494.5,1676.5c-22.5-3.4-58-15-60.4-41.4c0.6-2.8,5-1.9,3.1,0.8c3.1,6,6.7,12,12.5,15.8
		c-0.1-0.1-0.2-0.2-0.4-0.2c0.4,0.3,0.8,0.6,1.3,0.8c0,0,0,0,0,0c29.3,17.1,51.4,23.5,81.6,4c2.9-1.7,7.5-4.2,9.5,0
		C1546,1666.6,1502.2,1678.5,1494.5,1676.5z"/>
	<path fill="#231F20" d="M1515.1,1669.4c-2.8-5.9,28.8-17.4,34-21.7c4.9-1.5,15.1-9.4,18.5-3.1c0.5,1.9-0.5,4.1-2.3,5
		C1549.2,1657.1,1531.5,1663.9,1515.1,1669.4z"/>
	<path fill="#231F20" d="M1703.5,1584.5c-16.5-0.5-29.1-12.2-43.5-18.7c-22.2-9-52.7-5-64.9,17.6c0,0,0,0,0,0
		c-1.8,2-5.5,0.6-4.8-2.3c0,0,0,0,0,0.1c0,0,0,0,0,0c8-17.1,26-28.5,44.9-28.1c0,0,0,0,0,0c0.2,0,0.4,0,0.6,0c0,0,0,0,0,0
		c17.5-1.5,34.3,6.4,48.2,16.3c0,0-0.1,0-0.1-0.1c7.4,6,16.6,7.1,25.5,8.8C1713.9,1582.1,1707.9,1586.1,1703.5,1584.5z"/>
	<path fill="#231F20" d="M1732.2,1584.7c-2.2-0.6-8.4,1.3-7.9-2.4c1.3-2.1,4.4-0.1,6.4-0.7c0,0-0.1,0-0.1,0
		c11.9-1,23.5-4.7,34.8-8.2c-0.1,0-0.3,0.1-0.4,0.1c2.1-0.9,5.4-1.7,5.9,1.4C1773.2,1581.2,1737.1,1585.3,1732.2,1584.7z"/>
	<path fill="#231F20" d="M1652.2,1644.6c-13.5-2.2-25.6-9.6-37.4-16.1c-3-2.1-9-2.6-7.5-7.6c2.3-6.7,9.8-2.6,13.7,0.1
		c7.2,4.6,15.2,7.9,22.8,11.9c19.5,9.9,38.3-3.2,53.7-14.4c3-2.5,16.7-9.4,16.9-2.5c-0.4,0.9-1.4,1.5-2.4,1.2c-4.2-1-7.9,2.5-11,5
		c0,0,0,0,0,0c-0.1,0.1-0.3,0.2-0.4,0.4c0.1-0.1,0.2-0.1,0.2-0.2C1687.5,1634.8,1671.6,1647.4,1652.2,1644.6z"/>
	<path fill="#231F20" d="M1534.5,1631.1c-4.2-10.8,25.3-15.8,32.7-14.4c7.4,0.5,5.7,7.4,0.9,6.1c-9.2-1.5-19,2.2-26.8,6.9
		C1539.4,1631.1,1536.7,1633.4,1534.5,1631.1z"/>
	<path fill="#231F20" d="M1479.6,1644.7c-11.2-0.1-28.6-13.5-19.7-24.9c3.1-0.8,0.1,4.3,3.6,7c-0.1-0.1-0.2-0.2-0.2-0.3
		c0.5,0.7,1.1,1.4,1.6,2.1c0,0-0.1-0.1-0.1-0.1c0.1,0.2,0.3,0.4,0.4,0.5c-0.1-0.1-0.2-0.2-0.3-0.3c4.1,5,10.9,6.9,17.1,7.8
		C1487.1,1637.8,1484.2,1645.7,1479.6,1644.7z"/>
	<path fill="#231F20" d="M1827.1,1607.1c-5.7-1.8-0.3-8-0.7-11.9c0.7-12.8-14.5-18.1-25.2-17.3c-1.1,0.2-2-0.8-2-1.9
		c0.8-6,26.3-0.6,28.2,4.6c4.3,4.4,7.1,9.9,5.9,16.2C1832.8,1600.6,1832.5,1607.6,1827.1,1607.1z"/>
	<path fill="#231F20" d="M889.8,1236.4c-28.8-0.9-38.7-20.8-57.1-38.5c0.1,0.1,0.2,0.2,0.4,0.3c-13.2-11.6-19.6-11.3-34.8-4.3
		c-16.4,3-34,4.3-49.7-2.6c-28.6-14.5-30.1-54.4-10.7-77.2c10.5-12.2,26-18.9,41.4-22.4c25.5-5.5,50,4.1,74.6,9.1
		c13.7,0.9,28.8-1.1,36.6-13.7c14.8-18.1,35-33.3,59.5-32.6c39.7-4.7,55.7,27.5,93.6,26.2c30.7-3.4,48.4-34.3,78.7-39
		c-0.3,0.1-0.6,0.1-0.9,0.2c49.1-10.8,123.4,38,82.6,89.8c-15.5,18.9-41.4,14.7-61.8,23.8c-24.5,9.6-32.1,36.3-51.2,52
		c-27,22.1-63.2,1.8-86.5-16.4c-19.3-14.1-37.8-4.3-49.8,13.6C938.5,1223,915.5,1240,889.8,1236.4z M901,1224.3
		c27.7-0.9,43.6-26.1,61.7-43.3c20.6-15.3,43-6.1,60.4,8.9c20.5,13.3,51.4,24.8,68.9,1c26.7-39.7,40.9-48.4,88-57
		c44-17.3,17.8-67.7-18.2-76.1c-20.8-7.7-44.6-6-63.1,6.7c-10.3,7.1-19,16.6-30.8,21.3c-31,16.6-61.2,2.1-88.1-15.1
		c-32.5-12.8-64-3.5-83.9,25.2c-9.7,14.8-29.1,17.3-45.4,16.5c-25.9-4.5-52.4-15.8-78.6-6.2c-53.2,15.8-43.5,88,15.6,78.5
		c10.1,0.1,18-6.8,27.4-9.1C853.3,1177,857.8,1227.8,901,1224.3z"/>
	<path fill="#231F20" d="M883.4,1209.1c-26.7-2.1-32.5-26.8-52.4-38.8c0.2,0.1,0.3,0.2,0.5,0.3c-8.6-5.6-19.5-9.1-29.8-7
		c0.1,0,0.2,0,0.3-0.1c-26.5,12.3,4.7-24.6,46.3,6.6c12.8,12.4,22.1,28.5,42.2,29.1c5.2,1.5,14.4-4.9,16.4,2.4
		C906.2,1211.4,890.3,1209.7,883.4,1209.1z"/>
	<path fill="#231F20" d="M921.6,1184c-0.2-0.6,0.2-1.2,0.7-1.6c3-2.6,4.5-6.2,6.7-9.3c0,0.1-0.1,0.1-0.1,0.2
		c0.2-0.3,0.4-0.6,0.6-0.8c-0.1,0.1-0.2,0.3-0.3,0.4c4-4.9,7.9-10.9,14.3-12.6c3.3-1,9.1-3.1,9.8,2c0.5,6.6-7.8,5.7-11.7,8.3
		C937.3,1172.4,924.6,1186.9,921.6,1184z"/>
	<path fill="#231F20" d="M1031.7,1116.7c-18.1-1.2-31.4-13.9-46.7-21.7c-19.3-7.3-47.1-13.3-62.7,4c-2.6,5.1-8.5,0-4.1-3.6
		c22.3-25.3,65.5-19.6,89.6,0.2c8.3,5,17,9.7,26.7,11.4C1040.6,1108.4,1037.3,1117.8,1031.7,1116.7z"/>
	<path fill="#231F20" d="M1064.3,1104.2c-0.1-0.6,0.4-1.3,1-1.5c6-2.1,12-4.3,17.7-7.1c-0.1,0.1-0.3,0.1-0.4,0.2
		c12.4-7.7,20.7-21.5,35.2-26.4c5.7-1.3,20.7-8.6,21.9,0.9c-0.8,9.5-17,5.1-23.6,10.4c-9.8,4.7-17,13.3-26.4,18.7
		C1083.5,1101.6,1069.7,1106.4,1064.3,1104.2z"/>
	<path fill="#231F20" d="M1175.2,1100.5c0.6-5-2.5-11.6-7.7-12.8c0,0,0.1,0,0.1,0c-3.5-0.6-1.6-6,1.5-5.1c-0.1,0-0.1,0-0.2,0
		c7.7,1.6,16,8.4,15.3,16.9C1184.5,1105,1175.3,1107,1175.2,1100.5z"/>
	<path fill="#231F20" d="M1057.2,1174.4c-4-0.1-4.8-5.4-2.1-7.7c2.6-2.5,6.6-1,9.7-2.4c9.4-3.2,17.2-9.1,24-16.2
		c7.9-8.2,17.1-15.2,28.1-18.6c3.1-0.6,10.3-4.3,11.4,0.3c-0.1,3-3.3,2.7-5.5,2.9c-5.2,1.5-10,4-14.5,6.9c0.1,0,0.1-0.1,0.2-0.1
		c0,0-0.1,0.1-0.1,0.1c0,0,0,0,0.1,0c-0.1,0.1-0.3,0.2-0.4,0.3c0,0,0.1,0,0.1-0.1C1092.1,1152.3,1080.3,1174.4,1057.2,1174.4z"/>
	<path fill="#231F20" d="M757.3,1134.6c-2-8.8,19.5-21.1,26.9-20.3c4.8,4.4-1.5,7.5-5.7,8c-6,2.4-12.6,4.6-17,9.5
		C761.4,1133.9,759.4,1137,757.3,1134.6z"/>
	<path fill="#231F20" d="M1318.5,705.4c-36.9,3.8-57.5-34.3-91.2-40.8c-11.9-1.9-20.6,7.7-31,11.7c-12.1,4.5-25.1,7.3-38.1,7.1
		c-40.2,0.5-78.7-35.9-52.9-75.2c0,0-0.1,0.1-0.1,0.1c0.3-0.4,0.5-0.8,0.8-1.2c-0.2,0.2-0.3,0.5-0.5,0.7c0.4-0.6,0.8-1.1,1.2-1.7
		c-0.1,0.2-0.2,0.3-0.3,0.5c23.1-31.5,54-30.1,88.6-23c10.5,1,22.7-0.8,29.6-9.6c17.8-23.6,45.2-45,76.4-40
		c13.1,3.1,24.1,11.6,37.3,14.6c14.7,5.3,28.6-0.8,40.7-9.1c18.1-9.9,37.9-17.4,58.8-18.1c53.1-4.2,97.2,50.3,68.5,99.3
		c-20.9,27-42.4,25.5-72.4,17.8c-11-0.8-22.7,2.8-29.9,11.5C1384.7,679.4,1355.8,705.3,1318.5,705.4z M1322.1,694.9
		c74.3-4.4,62.5-81.7,131.6-62.1c49.2,11.6,70.1-54.9,35.3-84.2c-17.2-17.2-42.9-21.5-66.1-16.7c-43.9,7.1-56.8,42.1-104.4,18.3
		c-21.8-14.6-49.4-7.1-67.9,9.4c-11.2,8.9-17.5,23.3-30.4,29.9c-26.7,13.3-57.3-9-83.9,4.9c-22.2,9.3-39.7,39.3-19.8,59.2
		c20.2,19.8,51,19.7,76.5,11.5c4-4.5,10.9-5.7,16.3-8c-0.2,0.1-0.5,0.2-0.7,0.2c3.8-1.4,7.7-2.7,11.8-3.3c-0.2,0-0.5,0.1-0.7,0.1
		C1260,647.6,1281.6,699.9,1322.1,694.9z"/>
	<path fill="#231F20" d="M1292.4,667c-29.4-6.3-36.5-24.9-73.3-25.8c0.1,0,0.1,0,0.2,0c-0.1,0-0.3,0-0.4,0c0,0,0.1,0,0.1,0
		c-8.5-1.1-16.9,1.5-24.6,5c-3.1,2.4-5.9-0.1-2.1-2c0,0,0,0,0,0c11-6.3,22.8-10.2,35.6-8.7c12.3,0.8,25.7,2.3,36.3,9.1
		c9.2,6.1,19.3,11.4,30,14.3C1299,660.1,1296.8,667.3,1292.4,667z"/>
	<path fill="#231F20" d="M1318.4,666.4c-3.8-0.8-1.8-6.3,1.6-5.3c12.4-1.5,27.4-4.8,34-16.5c2.4-3.9,4.4-8,7.9-11.1
		c4.2-4.4,10.4,1.5,6.5,6.1C1357.1,659.4,1341.2,668,1318.4,666.4z"/>
	<path fill="#231F20" d="M1381.7,623.9c-5.9-5,21.9-21.8,23.1-12.6c-0.1,7-11.7,5.2-16.2,9C1385.9,620.9,1384.6,625.1,1381.7,623.9z
		"/>
	<path fill="#231F20" d="M1341,581.4c-15.9-2.5-30.2-12.2-46.7-11.5c-5.5,0.1-10.6,2.3-15.5,4.3c-3.4-0.4-2.1-5,0.7-5.3
		c0,0,0,0-0.1,0c9.9-5.3,21.2-6.7,32.2-4.8c10.7,3.1,21.6,5.9,32.1,9.9C1347.9,575.7,1345.1,582.1,1341,581.4z"/>
	<path fill="#231F20" d="M1365.9,573.4c-4.4,0.3-4.4-5.2-0.3-4.5c15.1-0.8,24.9-12.8,38-18.3c1.9-0.6,3.9,0.6,4.4,2.4
		c1.1,5.4-5.6,6.1-8.9,8.4C1388.9,567.5,1378.5,574.5,1365.9,573.4z"/>
	<path fill="#231F20" d="M1455.2,618.1c-4.6-0.8-26.2-0.3-23.5-7.4c2-8.7,19.6,5,32.7-0.7c0,0,0,0,0,0c4.3-1.3,8.2-3.7,11.4-6.8
		c-0.2,0.1-0.3,0.3-0.5,0.4c21-15.3,8-37.6-10.8-47.2c0,0,0,0,0.1,0c-7.2-3.2-15.9-5.6-23.6-2.9c-2.5,0.9-3-3-0.7-3.5
		c22.5-8.3,53.3,5.6,54.8,31.1C1495.9,601.7,1474.8,618.5,1455.2,618.1z"/>
	<path fill="#231F20" d="M1125.5,637c-6.8-8.8-4.7-26.1,6.6-29.9c-0.1,0-0.1,0-0.2,0c3.7-0.4,2.9,5.3-0.4,5
		c-6.6,7.8-2.2,14.4,1.6,21.7C1133.2,637.6,1127.9,640.5,1125.5,637z"/>
	<path fill="#231F20" d="M713.5,1048.9C713.5,1048.9,713.5,1048.9,713.5,1048.9c-0.2-0.1-0.4-0.2-0.6-0.3c0,0,0,0,0.1,0
		c-0.1-0.1-0.3-0.2-0.4-0.4c0.1,0.1,0.2,0.2,0.3,0.3c-3.1-7.9,0.9-18.2,1-26.7c1.8-14.1,2.8-28.3,5.2-42.3
		c4.6-36.8,10.2-72,54.7-74.9c9.2-0.7,14.4-3.5,16.5-12.9c3.3-9.1,6.4-18.4,8.5-27.9c6.5-25.4,8.8-54.5,26.5-75
		c28.4-29.5,71.9-32.1,90.1,9.4c17.9,35,9.4,80.7,32.2,113.2c12.3,8.4,25.8-18.2,51.3-4.1c28,19.6,28.6,59.3,33.4,90.2
		c0.1,12.2,5.6,25.5,1.8,37.1c-2.5,3.6-8.9,2.6-8.7-2.3c0.3-10.2-1.7-20.3-2.4-30.5c-3.8-37.9-9.3-115.8-65.8-81.5
		c-33.9,8.5-35.6-70.6-41-92.6c-9.4-52.1-48-71.9-87-30.6c-15.1,23.3-15.9,52.9-23.6,79.1c-13,44.6-14.8,30.7-51.6,44
		c-25.2,12.1-25.3,81.3-33.4,108.4C718.5,1032.9,719.2,1050.6,713.5,1048.9z"/>
	<path fill="#231F20" d="M832.7,838.3c-4.2-0.8,0.1-14.3,0.3-17.9c0.3-1.2,1.6-2.1,2.8-1.9c3.4,1.5-0.1,6.6,0.5,9.5
		c0-0.1,0-0.2,0-0.3C835.4,830.9,837,837.5,832.7,838.3z"/>
	<path fill="#231F20" d="M847.4,814.8c-1.5-2.6,0-12.7,4.2-11.9c2.8,0.6,1.8,3.4,1.3,5.3C853.4,811.7,852,818.1,847.4,814.8z"/>
	<path fill="#231F20" d="M848.6,847.8c-1.7-2.8,0.3-6.4-0.4-9.5c0,0.1,0,0.3,0,0.4c-0.2-2.7-1.2-7.5,2.8-7.7c3.4,0.6,2,5.4,2.9,7.9
		C854.9,842.6,854.4,851.5,848.6,847.8z"/>
	<path fill="#231F20" d="M867.5,807.2c-0.3-2.9,0.1-5.8,0.9-8.6c0.6-2.6,4.8-2.1,3.9,0.7c-0.2,2.1,0.5,4.3,0.8,6.4
		C873.7,809.1,868,811.1,867.5,807.2z"/>
	<path fill="#231F20" d="M869.5,832.9c-0.6-3.3-0.4-11.1,4.7-7.9c1.3,1.9,0.1,4.4,0.8,6.5C875.5,834.7,870,836.7,869.5,832.9z"/>
	<path fill="#231F20" d="M870.8,868.8c0.2-4.9-3.6-14.4,3.8-15.2c5.5,0.5,2.3,9.8,3.4,13.8C878.2,871.5,871.4,873.5,870.8,868.8z"/>
	<path fill="#231F20" d="M762.1,978.6c-4.9-0.8-1.6-7.3-1.3-10.5c1-2.7,1-8.9,5-8.5c2.6,1.4-0.1,4.7,0.1,6.9
		C765.2,970.5,767.9,978.1,762.1,978.6z"/>
	<path fill="#231F20" d="M771.7,947.1c-1.6-2,0.9-11.6,4.1-11.1c2.4,0.6,1.1,3.4,1.1,5.1C777.5,944.3,775.7,950.1,771.7,947.1z"/>
	<path fill="#231F20" d="M791.4,947.8c-1.8-3.5,1.2-7.8,1.2-11.6c-0.1-1.4,1.2-2.7,2.6-2.4c2.5,0.9,0.8,4.5,1.4,6.6
		C797.2,943.7,796.5,951.1,791.4,947.8z"/>
	<path fill="#231F20" d="M778.3,977.5c0.2-5.6,1.7-11.3,4.7-16.1c0,0,0,0,0,0c6-4.6,1,12.5,2,15.3
		C785.1,980.7,778.3,982.2,778.3,977.5z"/>
	<path fill="#231F20" d="M771.3,1016.7c0.6-5.4-0.6-16.9,6.7-17.5c2.2,0.4,3,2.9,2.2,4.8c-1.1,3.5-0.4,7.5-0.5,11.1
		C779.9,1019.8,772,1022.1,771.3,1016.7z"/>
	<path fill="#231F20" d="M806.5,987.5c-2.4-1.9,0.4-16.1,4.2-15.1c2.3,1.8-0.4,5.8,0.5,8.5C812.2,984.1,810.9,989.8,806.5,987.5z"/>
	<path fill="#231F20" d="M827.7,991.5c0.9-3.8-2.3-11.5,2.8-12.6c3.4,0.4,1.7,8.7,2.8,11.5C833.9,994,827.9,995.8,827.7,991.5z"/>
	<path fill="#231F20" d="M826,1025.8c0.1-4.4-2.1-13.9,4.7-13.9c4.6,1.7,1.3,8.7,2.2,12.6C833.1,1028.3,826.6,1030.2,826,1025.8z"/>
	<path fill="#231F20" d="M923.7,968.8c0.4-4.3-1.6-14.4,4-15.4c1.2,0.2,1.8,1.5,1.5,2.7c-1.1,3.8-0.3,7.8-0.4,11.7
		C928.9,970.6,924.1,972,923.7,968.8z"/>
	<path fill="#231F20" d="M938.9,949.9c-0.6-3.5-2.2-8,0.2-11.1c1.3-1.4,4-1.3,4.6,0.7c0,0,0-0.1,0-0.1c0.7,2.1,0.7,4.5,1.2,6.6
		c0,0,0-0.1,0-0.1c0,0.1,0.1,0.3,0.1,0.4c0,0,0,0,0-0.1C946.9,950.2,940.8,954.7,938.9,949.9z"/>
	<path fill="#231F20" d="M968.1,959c-3-3.6-1.7-9.5-3.5-13.9c-1-3.1,4.3-5.8,5.3-2.2C970.2,947.2,976.6,960.5,968.1,959z"/>
	<path fill="#231F20" d="M965.7,987.9c1-4.2-1.6-13.4,4.3-14.1c1.4,0.2,2.1,1.8,1.7,3c-0.7,3.4,0.3,6.9,0.4,10.3
		C972.3,991,965.7,992.4,965.7,987.9z"/>
	<path fill="#231F20" d="M940.5,1009.3c-4.2-20.3,11-19.3,6.4-10.9c-0.7,4.3,2.9,11.4-2.6,13.4
		C942.6,1012.3,940.6,1011.2,940.5,1009.3z"/>
	<path fill="#231F20" d="M913.6,1027.2c-1.8-2.1-0.4-5.5-0.4-8c0,0.1,0,0.2,0,0.3c0-2.7,4.3-3.6,4.4-0.5
		C917.7,1022.1,919.1,1029.5,913.6,1027.2z"/>
	<path fill="#231F20" d="M977.9,1016.3c-0.5-4.6,1.4-15.6,7.8-9.9c1.3,2.8-0.5,6-0.1,9C985.8,1020.1,978,1021.8,977.9,1016.3z"/>
	<path fill="#231F20" d="M1726.4,1428.7c-6.3-5.7-3.4-26.3-5.9-35.3c-4.3-24.5-5.9-51.4-18.4-73.3c-14.1-18.1-40-15.2-58.6-25.3
		c-31.3-19.4-27.6-75-39.8-107c-24.1-64.1-82.7-37.3-91.6-117.1c0.1,0.3,0.1,0.5,0.2,0.8c-8.5-43.9-1.6-89.3-10.3-133.3
		c-3.2-24.9-6.2-49.8-16.6-72.9c-4.9-13.2-11-26.4-21.9-35.7c0,0,0,0,0.1,0.1c-36.5-36.5-94.8,5.3-109.4,44.7
		c-15.9,41.6-2.2,86.8-7.8,129.9c-4.8,56.4-52.2,74.7-63.5,120.5c-3.8,18.9-4.3,38.4-8.7,57.1c-8.8,38.5-36.5,67.5-63.7,94.4
		c-30,30.7-57.4,68.6-59.2,113c2.9,3.7-3.2,9.6-6.6,5.9c-3.1-5.5-1.4-12.5-1.2-18.6c6-56.5,48.5-98.1,85.3-137.5
		c18.3-19.8,31.2-44.7,34.9-71.5c3.1-19.4,3.6-39.6,10.7-58.1c15.4-36.2,54.6-59.7,59-101.1c7-60.9-16.9-131.2,37.3-177.1
		c39.4-36,89.8-39.4,116.8,12.5c11.4,23.6,20,48.6,22.5,74.8c4.3,26,8.3,52,8.6,78.4c2.3,35.3-0.8,74,16.7,106
		c10.7,18.6,32.5,25.2,49,37.3c24.3,18.6,34.6,49,39,78.3c0,0,0-0.1,0-0.1c5.3,20.5,6.9,44.9,21.7,61c6.9,6.5,16.3,8.9,25.4,10.4
		c22.6,4.6,46.3,16.6,50.5,41.6c6.8,24.9,11.2,50.4,14.1,76C1736.3,1415.3,1739.8,1432.5,1726.4,1428.7z"/>
	<path fill="#231F20" d="M1394.4,910.2c-1.6-8.8,0.8-18.9,7.6-24.9c6.3-1.1,2,5.4,1.1,8.3c0.1-0.1,0.1-0.3,0.2-0.4
		c-2.2,5-1.8,10.4-1.6,15.7C1401.9,913,1395,915,1394.4,910.2z"/>
	<path fill="#231F20" d="M1390.7,962.2c-2.3-2.8-1.8-28.3,3.7-27.2c1.4,0.3,2,1.8,1.5,3C1394.9,942.9,1400,966.4,1390.7,962.2z"/>
	<path fill="#231F20" d="M1428,930.7c-0.3-3.1-0.4-6.3,0.4-9.4c0,0,0,0.1,0,0.1c0.8-2.5,1.1-7.3,4.7-7c1.4,0.3,2.2,1.8,1.8,3.2
		c-3.2,4.5,1.5,12.8-3.7,15.2C1429.7,933.2,1428.1,932.3,1428,930.7z"/>
	<path fill="#231F20" d="M1419.2,1004.7c-1.1-0.8-1.3-2.1-1.3-3.3c0,0,0,0.1,0,0.1c0.1-5.8-1.5-22.1,7.1-21.5
		c4.2,1.8,0.5,6.1,0.5,9.2C1424.8,994.2,1428.6,1008.1,1419.2,1004.7z"/>
	<path fill="#231F20" d="M1396.6,1032.5c0.6-4.6,1.1-14.7,7.7-13.7c5,2.6-0.8,8.5,0.1,12.7
		C1404.5,1036.4,1396.7,1038.1,1396.6,1032.5z"/>
	<path fill="#231F20" d="M1365.4,997.5c0.5-5,1.3-19.7,8.4-18.4c3.5,3-2,7.5-1.3,11.4c-0.5,3.5,1,9.3-3.8,10.1
		C1366.9,1000.8,1365.3,999.4,1365.4,997.5z"/>
	<path fill="#231F20" d="M1365.5,925.1c-4.6-0.8-1.5-7-1.3-10c0.9-2.8,0.6-8.8,5-7.9c3,1.6,0.5,5.8,0.6,8.5
		C1368.9,918.8,1370.1,924.8,1365.5,925.1z"/>
	<path fill="#231F20" d="M1401.9,858.6c-6.6-0.5,2-19.7,6.9-15.8c2.7,2.4-0.7,5.1-1.8,7.4C1405.1,852.9,1406.3,858.5,1401.9,858.6z"
		/>
	<path fill="#231F20" d="M1435.4,862c-0.2-4.4,0.7-8.8,2.5-12.8c0.5-1.4,2.3-2.4,3.7-1.9c3.5,1.7,0,5.7-0.3,8.4
		c-1,2.9,0.9,8-3.3,8.8C1436.6,864.6,1435.4,863.5,1435.4,862z"/>
	<path fill="#231F20" d="M1461.7,926.7c-0.3-5.2-3-16.3,4.2-17.4c1.7,0.3,2.3,2.1,1.8,3.6c0,0,0-0.1,0.1-0.1
		c-2.5,5.1,4.3,13.7-2.3,16.5C1463.8,929.7,1461.9,928.6,1461.7,926.7z"/>
	<path fill="#231F20" d="M1456.9,977.4c0.6-4,0.1-12.2,5.6-12.3c4.8,1.8-0.3,7.9,0.4,11.6C1463,980.3,1457,981.6,1456.9,977.4z"/>
	<path fill="#231F20" d="M1502.3,1199.8c-0.1-5.5,0.4-11.1-0.6-16.6c-0.9-2.5,0.8-5.4,3.4-5.7c6.1-0.8,3.3,17.2,3.9,21.5
		C1509.1,1203.1,1502.4,1204.6,1502.3,1199.8z"/>
	<path fill="#231F20" d="M1469.1,1208.8c0.4-5.7-1.3-23.2,6.8-23.1c5.6,1.9,0.2,8.9,0.8,13c-0.9,4.2,1.8,11.1-3.5,12.8
		C1471.3,1212,1469.2,1210.8,1469.1,1208.8z"/>
	<path fill="#231F20" d="M1493,1149.6c-0.1-5.5-3.9-13.1,0.8-17.4c0,0,0,0,0,0c1.7-1.3,4.3-1.3,5.6,0.4c0-0.1-0.1-0.1-0.1-0.2
		c1.9,4.4,0.6,10.1,1.9,15C1502,1152.3,1494,1155.3,1493,1149.6z"/>
	<path fill="#231F20" d="M1487.6,1241.3c-0.6-4.7-1.6-24.4,7.2-16.7c-0.1,5-0.7,10.3-0.4,15.4
		C1494.7,1243.9,1488.3,1245.8,1487.6,1241.3z"/>
	<path fill="#231F20" d="M1492.9,1288.6c1.2-5.7-3.3-16.2,3.7-18.5c6.9,0,1.9,13.2,2.8,17.7
		C1499.5,1291.8,1493.1,1293.3,1492.9,1288.6z"/>
	<path fill="#231F20" d="M1442.9,1265.4c0-6-2-21.9,5-23.9c1.3,0.2,1.9,1.6,1.5,2.8c-2.2,6.3-1.6,13.1-1.3,19.7
		C1448.7,1267.2,1443.5,1269.1,1442.9,1265.4z"/>
	<path fill="#231F20" d="M1549.6,1219.2c-0.9-5.2-4.4-16.8,3.3-17.8c1.7,0.3,2.6,2.1,2.1,3.7c-1.2,3.7,0.2,7.7,0.7,11.5c0,0,0,0,0,0
		C1556.9,1220.3,1550.9,1223.4,1549.6,1219.2z"/>
	<path fill="#231F20" d="M1542.7,1292.6c0.2-5.2-3.3-15.7,3.4-17.5c5,1.2,0.8,8.6,2.1,12.3c0.1,2.6,1.1,6.4-2.3,7.3
		C1544.4,1295.1,1542.8,1294.2,1542.7,1292.6z"/>
	<path fill="#231F20" d="M1312.1,1250.2c-5.6-1.7,2.1-13.1,2.8-17c1.1-3.1,5.9-1.7,4.5,1.6
		C1316.7,1238.5,1316.6,1249.6,1312.1,1250.2z"/>
	<path fill="#231F20" d="M1326.1,1193.8c-6.3,0.1-1.8-16.2,3.6-14.4c3.7,0.7,3.1,5,1.7,7.5C1330.5,1189.7,1330,1193.9,1326.1,1193.8
		z"/>
	<path fill="#231F20" d="M1353.8,1158.5c-1.2-5.4-2.9-18.9,5.5-18.1c3.5,2.4-1.2,5.8-0.3,9c-0.3,3.6,3,8.8-1.4,10.8
		C1356.2,1160.9,1354.2,1160.2,1353.8,1158.5z"/>
	<path fill="#231F20" d="M1345.3,1220.1c-0.1-4.6,0.7-15.3,7.3-13.6c3.7,3-1.5,8.5-0.3,12.7
		C1352.5,1223.5,1345.4,1225.1,1345.3,1220.1z"/>
	<path fill="#231F20" d="M1340.3,1288.1c1.1-5.9-3.3-21.9,3-24.2c1.8-0.3,3.1,1.5,2.7,3.2c-0.4,6.8,1,13.5,0.7,20.2
		C1346.8,1291.3,1340.3,1292.7,1340.3,1288.1z"/>
	<path fill="#231F20" d="M1293.7,1291.6c-4.6-1.4-1.1-7.3-0.3-10.4c1-2.7,1.7-7,5.5-6.5c1.8,0.3,2.8,2.3,2.2,4
		C1298.8,1282.7,1299.7,1291.6,1293.7,1291.6z"/>
	<path fill="#231F20" d="M1272.7,1272.8c-4.4-1.4-0.8-6.9-0.2-9.9c1.5-3.2,2.1-9.8,7-8.7c4.8,2.7-1,8.6-1.7,12.3
		C1276.9,1269.1,1276.3,1273.3,1272.7,1272.8z"/>
	<path fill="#231F20" d="M1254.6,1344.9c-3.7-3.5,1.8-25.5,8.2-17.5c0.9,3.5-2.2,6.7-2.3,10.3
		C1261.1,1341.4,1259.4,1347.6,1254.6,1344.9z"/>
	<path fill="#231F20" d="M1287,1374.1c0.6-5.3,2.7-20.2,10-18.9c5.8,3.2-1.2,9.8-1.7,14.3c-0.5,3.1-0.4,7.6-4.5,8.1
		C1288.8,1378,1286.9,1376.3,1287,1374.1z"/>
	<path fill="#231F20" d="M1364.3,1343.3c-0.2-4.5-1.1-14.2,5.2-14.5c1.8,0.3,2.6,2.2,2.1,3.9c-1,2.7-1.3,5.6-1.1,8.4
		c0-0.1,0-0.3,0-0.4C1371.8,1344.7,1365.4,1348.3,1364.3,1343.3z"/>
	<path fill="#231F20" d="M1806.1,1127.7c-8-31,2.8-63.4-6.5-94c0,0.1,0.1,0.1,0.1,0.2c-19.2-43-57.2,6.2-62.3-99.9
		c0,0.3,0,0.6,0,0.9c0-0.5-0.1-1.1-0.1-1.6c0,0.3,0,0.6,0,0.9c-0.1-1.7-0.2-3.4-0.2-5.1c0,0.3,0,0.6,0,0.9
		c-2.1-22.9,0.2-55.3-25.4-65.4c-35.2,0.2-46.2,40.3-49,69.1c0-0.3,0.1-0.7,0.1-1c-0.1,40.7-6.9,74.8-31,108.5
		c-7.6,12.5-11.1,27.1-13.2,41.4c1,1.8-1.4,4.2-3.2,2.9c0,0,0,0,0,0c0.1,0.1,0.1,0.1,0.2,0.1c-8.3-30.4,16.7-58.4,25.8-86.3
		c9.5-25.4,4.8-53.1,9.6-79.3c4.9-23.2,13-47.9,34.7-60.6c21.7-12,39.1-9.8,52.8,11.9c7.3,11.6,7.5,26,9.3,39.2
		c3.2,24-0.5,78.9,26.8,88.2c39.2,11.3,41.6,40.7,39.2,76.5c-1.4,16.1-0.5,32.4,2.4,48.4C1818.1,1129.5,1808.4,1134.6,1806.1,1127.7
		z"/>
	<path fill="#231F20" d="M1697,942.4c0.5-6.1-0.6-12.6,1.4-18.5c0.8-2.5,5-3.3,5.8-0.3c-0.2,3.2-0.6,6.5-0.2,9.9
		c-0.4,3.9,1.7,10.9-3.6,12.1C1698.6,945.7,1697,944.2,1697,942.4z"/>
	<path fill="#231F20" d="M1669.9,984.4c-3.4-5.3,0.5-12.9,2.1-18.4c1.7-4.7,9.1-2.6,6.9,2.4C1675.1,972.8,1679,988,1669.9,984.4z"/>
	<path fill="#231F20" d="M1674.6,914.1c0-2.9,1.4-5.5,2.4-8.1c0,0.1-0.1,0.1-0.1,0.2c0.4-4.1,6.6-4.3,5.3,0.3
		c-2,3.3,0.3,9.5-4.5,10.4C1676,917.2,1674.5,915.9,1674.6,914.1z"/>
	<path fill="#231F20" d="M1714.2,901.7c-0.9-4.4-4.5-13.9,2.9-13.9c3.9,1.6,3,7.9,4.4,11.5C1722.3,903.3,1715.6,906.3,1714.2,901.7z
		"/>
	<path fill="#231F20" d="M1718.4,971.4c0.1-2.4,0-4.9-0.1-7.3c0,0.1,0,0.2,0,0.3c-0.1-4.5-2.2-13.9,4.8-13.7c1,0.2,1.9,0.9,2.3,1.8
		c0.1,6,0.2,12.4-0.4,18.6C1724.8,974.9,1718.4,975.9,1718.4,971.4z"/>
	<path fill="#231F20" d="M1693.7,1001.6c0.2-4.5-0.3-14.3,6.4-13.4c4.5,2.3-0.4,7.8,0.4,11.6c0,0,0,0,0-0.1
		C1701.3,1004.3,1694.1,1007,1693.7,1001.6z"/>
	<path fill="#231F20" d="M1656.3,1062.9c0.8-5,0.3-17.6,7.4-17.2c4.1,2.1-0.2,6.8-0.4,10c-1.2,3.2,0.2,9-4.1,9.9
		C1657.6,1065.8,1656.2,1064.5,1656.3,1062.9z"/>
	<path fill="#231F20" d="M1714.1,1093.2c-5.1-4.2-4.1-13.6-2.5-19.5c1.7-6.1,10.9-4.3,8.3,2.2
		C1717,1081.2,1724.2,1094.1,1714.1,1093.2z"/>
	<path fill="#231F20" d="M1743.1,1099.9c-2.7-19.7,13.8-24.9,10.9-12.8c0,0,0,0,0,0c-2.1,3.4-2.5,7.3-2.3,11.2
		C1752.1,1103.1,1744,1105.5,1743.1,1099.9z"/>
	<path fill="#F7941D" d="M649.6,472.6c-7.9-1.8-3.8-13.1-5.7-18.9c-7.6-7.5,45.4-11.1,50.8-13.2c47.9-7.1,95.9-13.6,144-19
		c-0.1,0-0.1,0-0.2,0c1.8-0.2,3.6-0.4,5.4-0.6c-0.2,0-0.4,0-0.6,0.1c18.2-2,36.4-3.7,54.5-5.4c-0.3-2.6,0.1-6.6,3.5-6.4
		c46.5-7.9,94.2-7.7,141-12.3c0.8-6.3,9.6-6.2,14.5-6.7c2.6,0.3,6.2-0.6,7.7,2.1c3.8,11.1,3.6,23.2,4.3,34.9
		c-0.6,8.3,3.9,20.3-1.9,27c-4.8,3.4-15.6,9.2-16-0.9c-0.4-0.2-0.8-0.4-1.1-0.7c-36.2-0.2-72.3,0.9-108.5,1.9
		c-7.3-1.7-44.7,6-42.3-3.7c-50.6,1-101,6.8-151.4,11.4c0.2,0,0.4,0,0.6-0.1c-17.1,1.9-34.1,4.6-51.2,6.1c0.2,0,0.4,0,0.6-0.1
		C681.8,469.9,665.7,472.4,649.6,472.6z M908.6,450.2C908.6,450.2,908.6,450.2,908.6,450.2c0.4,0,0.9,0,1.3-0.1
		C909.4,450.1,909,450.1,908.6,450.2z M1053.4,399.7c0.1,0.5,0.2,1,0.4,1.4c0-0.5,0-1-0.1-1.5
		C1053.6,399.7,1053.5,399.7,1053.4,399.7z"/>
	<path fill="#F7941D" d="M655.4,1737c-3.9-60.2-4.6-121-9.5-181.4c-30.2,4.9-58.9,10.6-89.9,13c-26.1,0.1-53.1,4-78.8,3.9
		c1.1,27.3,1.3,54.3,3.5,81.8c1.2,15.4,1.8,34.7,2.7,51.9c0.8,11.9,4.3,31.6-12.3,32.9c-13.5-0.6-11.1-16.3-12.1-25.9
		c-1.2-17.7-1.5-33.5-3-50.6c-5.1-77.9-6.5-157-12.5-236.4c-1.8-40.3-6.8-80.5-9-120.7c-2.5-46.9-7.3-93.8-9.7-140.7
		c-4.5-58.3-2.8-116.8-4.7-175.3c-2.1-49.3-7-98.8-8.3-147.6c-2.7-39.2-1.6-84.1-3.6-124.7c-5.4-70.6-12-139.5-15-210.7
		c3.4-1.4,6.7-3,10-4.7c-0.2,0.1-0.3,0.2-0.5,0.3c4.7-2.5,9.5-4.8,14.5-6.8c2.5,61.8,6.9,123.5,12.1,185.1
		c4.7,45.8,3.5,97,5.7,144.2c2.1,50,6.1,98.5,9.2,148.7c1.8,54.4,1.4,108.9,4.8,163.4c42-6.1,84.6,3.1,126.3-3.9
		c0.7,8.6,0.9,17.1,1.4,25.7c-37.4,1.4-75,3-112.4,4.4c-3.5,3-8.5,4.1-12.9,5.2c4.9,63.5,8.8,125.7,13.3,188.7
		c55.2-13.8,113.7-9.2,169.6-18.4c-2.4-57.6,2.8-121.3,2.5-178.4c0.4-42.2-3.1-93-2.9-133.2c-2.9-89.5,0.2-180.1-5.1-269.3
		c-2.4-28.1-2.5-56.8-2.6-85.1c-0.4-39.4-5.3-85.5-7.1-126.1c8.3-2.5,16.7-4.6,24.9-7.3c3.8,60,8.3,120.3,7.9,179.9
		c6.7,83.8,5.3,168.3,7.1,253.5c2.5,100.3,6.5,196.3,1.9,296.4c-1.7,117,9.9,230.4,16.9,347.6c1.1,36.3,3.3,72,4,108.4
		C685.1,1740.4,664.1,1756.9,655.4,1737z M467.2,1385.2c3.3,56,6.9,112.2,9.1,168.3c55.3-11.8,112.8-7.5,167.6-23
		c-6-56.9-7.8-112.8-9.4-170c-21.7,2.5-43.6,3.6-65.5,4.6l0.1,0c-34.6,0.6-68.9,5-103.4,3.3C466.3,1374.1,466.8,1379.6,467.2,1385.2
		z"/>
	<path fill="#F7941D" d="M595.5,1142.2c-0.3-4.1-0.6-8.1-0.9-12.2c23.3-5.8,20.8,24.3,2.1,27.1
		C596.3,1152.2,595.9,1147.2,595.5,1142.2z"/>
	<path fill="#F7941D" d="M608,363c-4.7-60.8-6.9-119.3-12-178.4c-2.1-42.9-10-87.2-2.1-129.6c19.4-22.5,18.7,48.4,21.1,57.3
		c10.8,86.8,12.9,170.5,19.6,257.7c-8.3,3.6-17.8,4.6-25.4,9.9C608.8,374.6,608.4,369,608,363z"/>
	<path fill="#F7941D" d="M390.1,442.1c-0.3-56-6.1-110.1-9.4-165.7c-1-63.5-4.2-126.9-8.7-190.1c-2-25.9,37-25.8,25.5,1.1
		c8.3,59.5,4.6,119.1,5.7,178.7c3.5,57.2,10.6,115.3,10.6,172.4c-8.7,1.1-16.3,5.6-23.7,10.1C390.2,446.4,390.2,444.2,390.1,442.1z"
		/>
	<path fill="#F7941D" d="M444.1,984.2c-9.3,0.7-17.9-8.8-9.1-16.1c10.6-5.8,23.9-5.4,35.6-7.9c27.5-4.8,55.4-6.8,82.9-11
		c0.8,8.9,2.3,17.8,5.4,26.2C521,980.8,482.4,983.1,444.1,984.2z"/>
	<path fill="#F7941D" d="M576.8,971.5c-0.1-0.8-0.3-1.5-0.4-2.3c0,0.3,0.1,0.6,0.1,0.9c-0.1-0.5-0.2-1-0.2-1.4
		c0,0.3,0.1,0.6,0.1,0.9c-1.3-8-3.3-15.9-7-23.2c12.1-1.2,24.3-2.8,36.3-3.3c13.7,2.5,11,22.6-0.6,26.4c-9,3-18.6,2.5-27.9,3.5
		C577.2,972.5,577,972,576.8,971.5z"/>
	<path fill="#F7941D" d="M427.9,781.8c-5.3,0.6-9.4-4.2-7.8-9.3c5-11.8,22.8-10.3,33.5-13.3c0.4,2.4,0.3,4.9,0.4,7.3c0,0,0,0,0,0
		c0.3,4.5,1,9,2,13.4C446.7,780.4,437.3,781.2,427.9,781.8z"/>
	<path fill="#F7941D" d="M467.8,756.5c12.4,0,11.6,17.8,1.5,21.1C468.7,770.6,468.2,763.6,467.8,756.5z"/>
	<path fill="#F7941D" d="M462.8,757.2c0.1,0,0.1,0,0.2,0c0,0.3,0,0.6,0,1C463,757.9,462.9,757.5,462.8,757.2z"/>
	<path fill="#F7941D" d="M414.2,559.1c-14.4-25.4,70.6-25.9,85-29.4c0.6,7.8,2.2,15.5,2.6,23.3c-16.4,2.2-33,3.4-49.5,4.9
		C440.5,558.1,424.7,566.4,414.2,559.1z"/>
	<path fill="#F7941D" d="M517.2,547.6c0-0.8-0.2-1.7-0.4-2.5c0,0.2,0.1,0.3,0.1,0.5c-1.2-6-2.5-12-3.7-18
		c16.2-3.2,16.3,20.4,2.4,23.2C516.6,550.1,517.2,548.9,517.2,547.6z"/>
	<path fill="#F7941D" d="M514.1,531.7c0,0.1,0.1,0.3,0.1,0.4C514.1,532,514.1,531.9,514.1,531.7z"/>
	<path fill="#F7941D" d="M445.5,371c-14.2-1.9-29.8-1.5-43.1-6.7c-5.2-4.5-0.5-12.6,5.7-12.9c14.8-2.5,29.8-0.2,44.7-0.8
		c31.6-2.9,63.3-4,94.8-7.3c18.1-3.2,36.3-5.4,54.6-6.9c10.2-5.4,22,2.3,16.9,13.9c-6.8,13.6-25.8,8.7-38.3,11
		C536.1,368.6,490.7,370.3,445.5,371z"/>
	<path fill="#F7941D" d="M407.9,370.7c-5.2,0-8.4-5.8-5-9.9c5.9-5,15.4-3.8,22.7-6c37.4-6,75.1-11.4,113.1-11.3
		c23.1-0.9,45.5-7.8,68.7-8c12,0.7,8.8,18.7-1.7,19.3c-9.3,0.7-18.7,0.6-28,2c-27.2,6.1-54.9,3.9-82.4,5.9
		C466.1,363.8,437.2,369.4,407.9,370.7z"/>
	<path fill="#F7941D" d="M410.7,179.1c-7.4,1.1-18.4-5.5-11.2-13.2c0,0,0,0,0,0c5-4.7,12.6-4.3,19-5.6c15.8-2.2,31.7-3.3,47.5-5
		c42.9-5,85.6-10.2,128.8-11.6c19.2-7,22.2,20.8,4.3,23.5c-6.5,0.2-12.9,0.2-19.4,0.6c0.2,0,0.4,0,0.6,0
		C523.7,169.1,467.5,178.1,410.7,179.1z"/>
	<path fill="#231F20" d="M610.5,481c-20.8-1.5-10.6-19.7,4.9-15.9C623.8,467.4,621.6,482.7,610.5,481z M612.2,476.6
		c0.8-0.1,1.6-0.3,2.3-0.6c-3.4-0.7-4.9-4.9-3.5-7.9c-0.7,0.2-1.4,0.5-2.1,0.8c0,0,0,0,0,0c-2.3,0.9-4.8,1.9-6.3,4
		C604.5,476.2,608.7,476.7,612.2,476.6z"/>
	<path fill="#231F20" d="M612.5,485.1c-0.6-1.2,1.2-0.8,1.8-1.3c0,0-0.1,0-0.1,0c1.3-0.5,2.4-1.3,3.4-2.3c0,0,0,0,0,0
		c0.1-0.1,0.2-0.2,0.3-0.3c0,0-0.1,0.1-0.1,0.1c0.7-0.7,1.4-1.5,1.9-2.4c1.1-1.6,2.9,0.6,1.5,1.7
		C618.7,482.5,615.8,486.2,612.5,485.1z"/>
	<path fill="#231F20" d="M601.8,502.6c-2.7-1.1,0-4.7,0.4-6.7c-0.2-1.6,1.6-3.4,3.2-2.5h0c1.3,0.8,1.3,2.8,0.2,3.8
		C604.3,498.8,604.3,502.5,601.8,502.6z"/>
	<path fill="#231F20" d="M610.1,499.8c-2.6-1.1,0.6-4.6,1.1-6.4c-0.2-0.6,0.6-1,1-0.5c0.4,0.9-0.2,2-0.4,2.9c0,0,0,0,0,0
		C611.2,497.1,611.9,499.6,610.1,499.8z"/>
	<path fill="#231F20" d="M617.4,497.6c-2.3,0.1,0-5.9,0.9-6.5C619.9,490.9,619,498,617.4,497.6z"/>
	<path fill="#231F20" d="M571.1,1377c-14.4-7.8,24.9-28.7,30.1-35.4c-9.2-41-4.7-83.6-7.6-125.4c-3.4-100-5.6-201.5-35.2-297.9
		c-43.7,14.1-89.8,20.4-132.1,38.9c0.2-0.1,0.4-0.2,0.6-0.2c-14.6,7.3-30,13.9-43.6,22.8c-5.4,16.3-1.1,34.4,3.9,50.3
		c0-0.1-0.1-0.3-0.1-0.4c9.5,26.1,23.4,50.1,35.6,75c10.1,21.2,19.7,42.7,33,62.2c1.8,5.7-4.9,9.9-7.4,14.4
		c-7.4,8.7-13.7-6.5-19.5-10.2c-7.4,18.4-22.6,34.2-41.6,40.6c0.2-0.1,0.3-0.1,0.5-0.2c-19,10.1-24.3,4.3-10.9-12.8
		c5.4-7.9,9.4-16.7,14.2-25c-17.1-33.1-33.8-66.3-50.6-99.5c-11.7-19.2-20-40-29.1-60.4c-5.8-13.4-12.2-26.5-14.8-41
		c-22.1-68.5,105.1-89.4,149.4-109.7c0.1,0,0.2,0.1,0.2,0.1c-0.1,0-0.1,0-0.2-0.1c0.1,0,0.1,0,0.2,0.1c-0.1,1.6,1.4,2.9,2.8,3.2
		c29.8,13.1,64,15,96.2,16.9c8.1,0.7,17.7,1.3,25.1-1.8c8.3-9.2,16.2-18.8,23.9-28.6c2.1,11.2,2.2,23.7,7.2,33.9
		c18.1,5.3,38.6,4.4,57.3,2.7c3.7,52.4-1.6,105.1-2.6,157.6c-1.8,46.7-1.5,93.5-2,140.2c1.2,27.5,0.9,55.1,2.3,82.6
		c1,30.6,4.6,61.1,2.6,91.7c-0.8,9.1-13.2,6.3-19.5,7.7c-6.3-1.9-5.3-11-6.9-16.2C617,1369.2,592.8,1375.6,571.1,1377z
		 M444.4,1174.7C444.4,1174.7,444.4,1174.6,444.4,1174.7c-0.4-0.5-0.8-0.9-1.2-1.4C443.6,1173.8,444,1174.2,444.4,1174.7z"/>
	<path fill="#231F20" d="M513.1,586c-0.1-0.3-0.1-0.6-0.2-0.8c1.3-0.2,2.5-0.4,3.8-0.6C516,585.8,514.1,588.1,513.1,586z"/>
	<path fill="#231F20" d="M611.2,578.3c-0.6-0.6-1.3-1.1-1.9-1.7c3.2-0.5,6.4-0.7,9.7-0.7c0.3,0.5,0.6,1.1,0.9,1.6
		c-1.1,0.2-2.1,0.5-3.2,0.6h0c-1.7,0.2-3.3,0.3-5,0.6C611.6,578.7,611.4,578.5,611.2,578.3z"/>
	<path fill="#231F20" d="M616.7,578.3C616.7,578.3,616.7,578.3,616.7,578.3C616.7,578.3,616.7,578.3,616.7,578.3
		C616.6,578.3,616.7,578.3,616.7,578.3z"/>
	<path fill="#231F20" d="M616.7,578.3C616.7,578.3,616.7,578.3,616.7,578.3C616.7,578.3,616.7,578.3,616.7,578.3
		C616.7,578.3,616.7,578.3,616.7,578.3z"/>
	<path fill="#231F20" d="M381,502.9c-1.1-1.9-2.8-3.5-4.2-5.1c6.3-3.3,12.8-6.3,19.5-8.8c-0.2,0.1-0.3,0.1-0.5,0.2
		c8-3.3,17.1-4.1,24.8-8.1c-0.1,0-0.3,0-0.4-0.1c0.1,0,0.2,0,0.3,0.1c-3.4-0.8-6.7,0-10,0.4c-7.5-3.9,5.2-8.2,8.2-10.5
		c-4.4-0.8-8.4,2.2-12.6,1.8c-5.1-4.2,3.3-6.8,6.6-7.9c0,0,0,0-0.1,0c0.1,0,0.2-0.1,0.3-0.1c0,0-0.1,0-0.1,0
		c1.8-0.9,4.1-1.5,5.3-3.2c-0.3-0.4-0.7-0.6-1.1-0.9c0.1,0,0.2,0.1,0.3,0.1c-4.7-1.2-9.6,2.1-14.3,2.4c-8.8-5.2,9-8.6,11.1-12.4
		c-18.5,0-32.3,15.4-46.9,24.8c0,0,0,0,0,0s0,0,0,0c-2,1.5-4,3-5.8,4.7c-1.2-1.3-2.3-2.7-3.6-3.8c12.1-10.9,25.7-20.7,40.3-27.9
		c6.8-3.8,29.2-6.5,17.9,6.8c5.4-0.4,8.9,6.3,4.5,10c6.3,0.1,5,7.6,0.7,9.8c11.6,2.3,2.3,13.1-4.8,14.6c-11.7,4.8-23.4,9.4-34.7,15
		C381.5,504.2,381.3,503.5,381,502.9z"/>
	<path fill="#231F20" d="M836,449c-1.1-10-6.4-23.3,1.6-31.5c3.1-2.3,7.6-1.9,9.4,1.8c1.2-5.1,8.9-7,10.4-1.1
		c2.8-4.7,8.1-8.3,9.7-0.6c5.8-9.2,12.4-2,11.1,6.3c-2.2,12-1.2,24.6-0.2,36.7c-2-0.4-4.1-0.4-6.2-0.3c-2.5-13.8-0.3-27.9,1.6-41.4
		c0,0.1,0.1,0.2,0.1,0.3c-0.1-0.7-0.4-1.4-1-1.7c-3.6,2-4.2,6.2-4.7,9.9c-5.3,7.1-3.1-8.1-4.8-10.3c-2.9,2.7-4.9,6.5-4,10.5
		c0.7,2.3-1.8,5.5-3.8,3.1c-1.8-3.3,0.7-9.5-2.6-11.8c0,0,0.1,0,0.1,0c0,0,0,0,0,0c0.1,0,0.1,0,0.2,0c-5.9,0.6,0,21.2-7.7,15.4
		c-1.3-2.8,0.7-13.7-4.3-11.9c-3.5,13.5,3.3,27.8,3.7,41.6c-1.8,0.2-3.7,0.1-5.4,0.6C837.7,459.4,836.8,454.2,836,449z"/>
	<path fill="#231F20" d="M635.1,496C635.1,496,635.1,496,635.1,496C635.1,496,635.1,496,635.1,496C635.1,496,635.1,496,635.1,496z"
		/>
	<path fill="#231F20" d="M635.2,496C635.2,496,635.2,496,635.2,496C635.2,496,635.2,496,635.2,496z"/>
	<path fill="#F7941D" d="M630.8,890.5c-39.6-2-29.5-0.5-36.7-37.7c-7.6,9.8-15.6,19.3-23.9,28.6c-7.4,3.2-17.1,2.6-25.1,1.8
		c-32.3-1.8-66.4-3.7-96.2-16.9c-4.2-1-3.1-5.6-0.3-7.6c3.7-4.9,6.4-10.2,8.3-16c9.6-23.2,9.8-44.2,7.6-68.7
		c-2.5-29.7-9.7-59.1-16.1-88.3c-53.4-2-135.7,5-178.6-31.4c-35.1-37.3-20.7-84.4,10.7-118.6c21-23.9,44.6-46.8,73.8-60.1
		c0,0,0,0,0,0c6.4-0.1,10.3,11,15.3,14.6c3.5,5.4,17.9,13.1,8.8,19.3c-10.3,11.3-23.9,19.9-34.9,30.9l0.1-0.1
		c-105.7,90.6,60.7,59.1,111,54.6c29.4-2.7,58.2-6.7,87.7-10.4c17.7,0.1,34.3-2.1,51.8-2.3l-0.1,0c9.2-1,18.9-0.1,27.7-2.7
		c32-6.2,65.4-6.7,97.6-2.9l-0.4,0c30,2.3,59.9,5.3,89.9,6.1c13.9-0.6,28.6,3.8,42.2,0l0.1-0.1l0,0c1.4-15.5-1-28.3-2.9-42.9
		c-2.9-21.6-6.5-42.9-15-63.1c-4.4-10.5,7.8-13.2,15.7-13c9.5-0.5,27.7-7.8,34.7-0.4c3.3-0.2,3.7,11.4,6,14.5
		c13.1,32.6,17.4,66.4,23.3,100.9l0-0.2c3.7,26.1,3.3,63-26.6,73c-25,9.7-52.2,12.6-78.7,14.8l0,0c-0.1,0-1.7,0.1-1.8,0.1l0.2,0
		c-22.4,3.3-44.5,2.6-67.1,2.3c-16.8-0.3-33.9,0.9-50.9-0.2c-1.1,33.9-15.9,67.2-8.6,101c4.9,23.2,11.8,45.2,19.7,67.5
		c4.5,10.4,5,22.9,8.9,33.3c9,13.5-36.8,17.5-44.6,18.3c-1.3,0.9-3.1,1.2-4.6,0.5C649.5,890.9,640.1,890.5,630.8,890.5z
		 M606.2,879.7C606.2,879.7,606.2,879.7,606.2,879.7c0-0.2-0.1-0.4-0.2-0.6C606.1,879.4,606.1,879.6,606.2,879.7z M371.7,675.1
		L371.7,675.1c-1.1,0-2.2,0-3.3-0.1C369.5,675,370.6,675,371.7,675.1z M646.8,582.2c0.7-0.1,1.4-0.1,2.1-0.2
		C648.2,582.1,647.5,582.1,646.8,582.2z"/>
	<path fill="#F7941D" d="M488.6,595.2c-5-7.9,19.8-8.2,24.3-10.1v0c1.3-0.2,2.5-0.4,3.8-0.6c0,0,0,0,0,0c2.5-0.3,5-0.4,7.5-0.8
		c0,0,0,0,0,0c28.5-3.2,57-2.4,85.2-7.1c0,0,0,0,0,0c15.4-1.8,30.9-1.1,46.4-0.6c3.3,0.4,7.9-1.3,10.2,1.6c1.1,2.1,0,4.6-2.1,5.4
		c-21.8,1.1-43.7-0.2-65.5,2.4c0.1,0,0.3,0,0.4-0.1c-32,3.9-64.5,2.2-96.4,7.5c0,0,0,0,0,0c-1.4,0.2-2.8,0.4-4.2,0.6c0,0,0,0,0,0
		C494.9,593.7,491.5,596.2,488.6,595.2z"/>
	<path fill="#241F20" d="M513.3,583c0.5-6.1,3.4-11.4,9.6-13.2c-0.5-5.2-0.4-10.4-0.4-15.7c-10.4,4.9-18.2-5.5-9.9-13.6
		c-8.2,1.5-10.1-8.3-3.1-11.6c-6.5-1.3-7.5-10-1.2-12.4c3.6-1.8,7.7-1.7,11.4-3c-4.6-27.4-0.7-57.7,15.5-80.9c0,0,0,0,0,0
		c12.3-17.5,33.9-24.9,54.7-22c0,0,0,0,0,0c17.9,3.2,21.4-7.6,23.6-22.6c2.5-10.9,19.6-14.4,19.9-0.5c9.4-7,19.4,0.2,13.6,11
		c5.2-1.8,11.3,0.2,11.4,6.4c0-0.1,0-0.2,0-0.3c0,0.3,0.1,0.5,0.1,0.8c0-0.1,0-0.2,0-0.3c0.5,6.5-3.7,12.3-8.2,16.6
		c0,0,0.1-0.1,0.1-0.1c-6.7,6.7-15,11.5-24.1,14.2c4.1,11.3,3,23.8,6.5,35.3c2.2,7.8,10.3,9.6,16.4,13.4c2.8,4.2-3.2,7.6-6.6,8.7
		c0,0,0,0,0,0c-2.4,1.1-5,2-7.5,2.9c0,0,0,0,0,0c0,0,0,0,0,0c-0.5,0.2-0.9,0.4-1.4,0.6c0.8,37.2,16,38.8-26.7,47.9
		c0.1,0,0.3-0.1,0.4-0.1c-0.9,0.2-1.9,0.5-2.8,0.7c0.3,6.5,0.3,12.9,0.9,19.4c5.3,2.5,10.1,6.6,13.4,11.4c-3.2,0-6.5,0.3-9.7,0.7
		c-12.8-10.2-31.2-3.3-46.2-3.4c-13,3.3-40.3-1.9-46.5,11.2c-1.3,0.2-2.5,0.4-3.8,0.6C512.9,584.4,513.1,583.6,513.3,583z
		 M551.8,487.8c-9.9,1.6-10.9,17.3-4.6,23.4c4.6,2,1,9.2,0.7,13c-2.6,11.2-9.3,21.5-19.5,27.1c-0.6,5.6-0.8,11.3-0.6,16.9
		c23.8-2.9,48.2-5.4,72.2-4.9c0.2-7.2-1.6-15-0.1-21.9c9.2-6.5,22.2-5.3,32.3-10.2c0.7-5.9-7-38.4,0.3-38.1c4.6-1.7,10.7-1.9,14-5.7
		c-13.7-4.1-22.8-13.8-23-28.6c0,0,0,0,0,0c0-0.3-0.1-0.6-0.1-1c0,0.1,0,0.2,0,0.4c-0.1-0.7-0.1-1.4-0.2-2.1
		c-4.6,2.3-9.5,4.4-14.5,5.7c0.1,0,0.3-0.1,0.4-0.1c-4.7,1.5-19.6,2.4-13.9-6c8.4-4.2,17.9-7.9,27.5-6.5c-0.4-4-0.4-8-1.3-11.9
		c-15.6,6-30.9,13.2-46.8,18.9c0.1,13,2.8,25.8,4.3,38.7c0,0,0,0,0,0c2.8,15,0.5,13.6-13.5,16.9
		C557.9,507.8,562.6,487.4,551.8,487.8z"/>
	<path fill="#FFFFFF" d="M447,669.8c-4-6.8,1.5-9.8,2-5.6c0.4,1.1,1.1,2.1,1.8,3.1C452.3,669.6,448.4,672.5,447,669.8z"/>
	<path fill="#FFFFFF" d="M689.8,652.4c-1.9-3.4,1.2-9.8,2.7-13.1c4.9-2.7,2.8,5.6,3.2,8.1c0-0.1,0-0.3,0-0.4
		C696.7,650.5,693.3,655.4,689.8,652.4z"/>
	<path fill="#FFFFFF" d="M593.9,841.3c-3.2-9,0.7-20.2-0.4-29.9c0.2-3.5-3-12.8,3.3-11.5c4.4,8.3,2.4,19.3,2.9,28.5
		C599.6,832.8,601.5,844.4,593.9,841.3z"/>
	<path fill="#FFFFFF" d="M631.7,580.2c-3.1,0.2-10.1-2.4-4.5-5.1c0,0,0,0,0,0c3.7,0.4,7.4,0.5,11.1-0.1c1.4-0.2,2.5,0.9,2.5,2.3
		C640.4,581.6,634.7,580.1,631.7,580.2z"/>
	<path fill="#FFFFFF" d="M896.3,436.2c-2.3-2.2-0.6-6.4-1-9.3c-0.3-0.5-0.2-1.2,0.1-1.7c0,0,0,0,0,0c2-4,3.8,1.5,3.7,3.6
		C899.7,431.5,901.1,437.5,896.3,436.2z"/>
	<path fill="#FFFFFF" d="M1046.5,444.3c-1.1-8.7,0-17.3-0.3-25.9c0.8-3.9-3.4-18.1,3-16.8c0,0,0,0,0,0c4.7,10.7,1.9,23.9,3,35.4
		c0,0,0-0.1,0-0.1c0,0.1,0,0.3,0,0.4c0,0,0,0,0-0.1c-0.2,3.1,0.9,8.4-3.1,9.2C1047.8,446.5,1046.6,445.6,1046.5,444.3z"/>
	<path fill="#FFFFFF" d="M554.5,432.4c-3.9-2.5,4.3-6.7,6.3-7.9c2.8-1.1,3.8,3,1.4,4.1C559.7,429.7,557.4,432.3,554.5,432.4z"/>
	<path fill="#FFFFFF" d="M561.2,440.1c-0.5-0.4-0.6-0.9-0.6-1.4c0,0,0,0,0,0c0-0.3,0.1-0.6,0.2-0.8c0,0,0,0,0,0c2-3,5.1-5.5,7.9-7.7
		c2.6-1.4,3.9,2.4,1.6,3.7c0,0,0,0,0.1,0c-1.5,1.1-2.9,2.3-4.3,3.5c0,0,0,0,0.1-0.1c-0.1,0.1-0.2,0.1-0.2,0.2c0,0,0,0,0.1,0
		C564.4,438.3,563.4,441.5,561.2,440.1z"/>
	<path fill="#FFFFFF" d="M569.8,443.4c-4.2-3.2,3.8-7,6.1-8.9c0.8-0.5,2-0.4,2.6,0.5c1.3,3.2-3.5,4.5-5.1,6.5c0,0,0,0,0,0
		c-0.3,0.3-0.7,0.6-1,0.9c0,0,0,0,0-0.1c0,0-0.1,0.1-0.1,0.1c0.1-0.1,0.2-0.2,0.3-0.3c0,0,0,0,0,0c0.1-0.1,0.1-0.2,0.2-0.3
		C572.2,443,571,443.9,569.8,443.4z"/>
	<path fill="#FFFFFF" d="M338.4,978.5c-4.8-2-11.2-3.6-13.6-8.7c-1-3,4.3-5.3,4.8-1.6c2.5,4,13.2,3.4,12.1,8.7
		C341.1,978,339.7,979,338.4,978.5z"/>
	<path fill="#FFFFFF" d="M348,967.6c-2.2-2.8-10.9-9.7-8.9-13.1c2.9-1,4.6,5.6,7.1,7c1.1,1.9,5.6,3.6,3.8,6
		C349.5,968.1,348.6,968.2,348,967.6z"/>
	<path fill="#FFFFFF" d="M577.9,915.9c-2.4-0.2-1.5-3.8,0.6-3.6c2.8,0.9,8.5-3.1,9.7,0.6C587,916.3,581,915.3,577.9,915.9z"/>
	<path fill="#FFFFFF" d="M588.8,932.3c-2.6-0.8-9.2,0.9-8.8-3.2c1.6-3.6,6.7-0.4,9.7-0.8C592.1,928.8,590.9,932.5,588.8,932.3z"/>
</g>
</svg>
